# xmcd
#
# Track frame offsets:
#	150
#	16125
#	33975
#	52575
#	73575
#	92025
#	111225
#	128175
#	144825
#	166800
#	181650
#	199275
#	216225
#	231375
#	251325
#	274125
#
# Disc length: 3868 seconds
#
# Revision: 1
# Processed by: cddbd v1.5.2PL0 Copyright (c) Steve Scherf et al.
# Submitted via: audiograbber 1.83.01
#
DISCID=d70f1a10
DTITLE=Sweet Georgia Brown - SGB0019
DYEAR=1900
DGENRE=Karaoke
TTITLE0=Shania Twain - You've Got A Way
TTITLE1=Shania Twain - That Don't Impress Me Much
TTITLE2=Shania Twain - If You're Not In It For Love
TTITLE3=Shania Twain - Whose Bed
TTITLE4=Shania Twain - God Bless The Child
TTITLE5=Shania Twain - Man I Feel Like  A Woman
TTITLE6=Shania Twain - You're Still The One
TTITLE7=Shania Twain - Love Gets Me Every Time
TTITLE8=Shania Twain - Woman In Me The,
TTITLE9=Shania Twain - No One Needs To Know
TTITLE10=Shania Twain - Don't Be Stupid
TTITLE11=Shania Twain - Honey I'm Home
TTITLE12=Shania Twain - Come On Over
TTITLE13=Shania Twain - Any Man Of Mine
TTITLE14=Shania Twain - From This Moment On
TTITLE15=Shania Twain - You've Got A Way
EXTD=
EXTT0=
EXTT1=
EXTT2=
EXTT3=
EXTT4=
EXTT5=
EXTT6=
EXTT7=
EXTT8=
EXTT9=
EXTT10=
EXTT11=
EXTT12=
EXTT13=
EXTT14=
EXTT15=
PLAYORDER=
